<svg xmlns="http://www.w3.org/2000/svg" width="1561" height="438" viewBox="0 0 1561 438" version="1.1"><path d="M 1397.139 1.147 C 1391.939 2.644, 1386.909 6.225, 1381.141 12.536 C 1374.025 20.322, 1369.736 27.231, 1363.161 41.500 C 1360.120 48.100, 1354.528 58.375, 1350.736 64.333 C 1346.943 70.291, 1342.463 78.391, 1340.779 82.333 C 1335.190 95.415, 1335.962 109.636, 1342.645 116.723 C 1345.629 119.886, 1346.392 121.841, 1348.581 131.926 C 1350.907 142.647, 1350.968 143.574, 1349.412 144.500 C 1343.492 148.024, 1335.512 154.849, 1332.937 158.592 C 1329.019 164.286, 1325.022 172.908, 1325.010 175.691 C 1324.992 179.591, 1323.453 179.017, 1317.422 172.860 C 1306.836 162.054, 1293.120 152.099, 1279.112 145.056 C 1256.493 133.684, 1230.627 129.538, 1207.500 133.579 C 1195.601 135.658, 1188.505 138.117, 1176.802 144.218 C 1164.816 150.466, 1158.158 155.733, 1138.150 174.795 L 1122.435 189.767 1114.467 176.637 C 1099.889 152.614, 1083.852 139.308, 1062.811 133.777 C 1056.151 132.027, 1051.718 131.596, 1040.500 131.605 C 1023.921 131.619, 1014.767 133.364, 1004.330 138.501 C 993.905 143.632, 988.734 148.832, 983.651 159.292 L 979.380 168.085 976.770 164.418 C 973.691 160.089, 966.014 153.558, 961 151 C 946.508 143.607, 923.710 143.946, 908.183 151.786 C 900.747 155.540, 886.632 167.403, 879.806 175.634 C 876.674 179.410, 871.175 185.399, 867.586 188.941 L 861.060 195.382 857.609 187.809 C 852.044 175.597, 841.052 158.130, 834.540 151.151 C 827.093 143.169, 820.498 138.855, 810.328 135.310 C 803.267 132.849, 801.128 132.579, 788.500 132.555 C 776.425 132.533, 772.300 132.989, 758.500 135.869 C 715.620 144.819, 683.574 158.513, 666.927 175 C 662.762 179.125, 658.131 184.019, 656.636 185.876 C 655.141 187.732, 653.783 189.082, 653.618 188.876 C 653.453 188.669, 651.881 181.731, 650.124 173.457 C 645.493 151.646, 643.556 145.883, 638.863 139.946 C 633.185 132.763, 628.673 130.967, 614.559 130.272 C 599.447 129.528, 590.619 131.151, 586.500 135.431 C 584.850 137.145, 583.020 139.407, 582.434 140.456 C 581.388 142.327, 581.112 142.322, 567.934 140.178 C 560.545 138.977, 548.875 137.493, 542 136.882 C 527.302 135.575, 502.989 136.214, 498 138.038 C 491.803 140.303, 486.263 144.829, 477.825 154.521 C 473.287 159.735, 469.275 164, 468.910 164 C 468.545 164, 465.686 159.709, 462.557 154.465 C 454.670 141.249, 446.656 132.928, 437.420 128.363 C 430.563 124.974, 429.668 124.779, 423.938 125.428 C 408.009 127.230, 391.441 136.003, 375.600 151.025 C 369.495 156.814, 361.125 164.183, 357 167.402 C 348.061 174.375, 345.451 177.178, 342.935 182.500 C 340.893 186.820, 340.540 194.070, 341.963 202.500 C 342.427 205.250, 342.445 207.883, 342.003 208.350 C 340.781 209.644, 330.436 206.280, 327.285 203.564 L 324.500 201.163 326.876 192.331 C 330.994 177.028, 332.188 170.707, 332.321 163.500 C 332.430 157.610, 332.002 155.641, 329.624 151.084 C 326.080 144.292, 317.914 136.082, 311.920 133.286 C 293.242 124.573, 269.463 131.197, 247.551 151.217 L 241.603 156.652 230.551 149.988 C 224.473 146.323, 216.125 141.947, 212 140.265 C 191.999 132.106, 151.036 126.037, 125.500 127.449 C 97.542 128.996, 81.927 132.017, 68.133 138.548 C 51.943 146.215, 46.495 150.583, 19.529 177.522 C 6.284 190.753, 3.538 199.339, 1.797 232.953 C 0.474 258.492, 1.951 317.233, 4.514 341 C 8.285 375.969, 13.629 406.587, 18.001 418.273 C 22.189 429.468, 31.995 434.961, 51.448 437.011 C 72.476 439.227, 88.675 437.441, 100.485 431.605 C 108.162 427.811, 110.590 425.642, 115.365 418.314 C 117.565 414.938, 121.167 411.708, 127.424 407.500 C 132.332 404.200, 137.198 400.340, 138.240 398.923 C 141.292 394.767, 142.005 389.331, 141.335 375.333 L 140.704 362.167 145.602 361.513 C 168.069 358.512, 182.114 354.493, 193.335 347.854 C 197.094 345.630, 204.969 339.242, 210.835 333.660 C 216.701 328.077, 220.767 324.407, 219.871 325.504 C 214.667 331.877, 211.826 341.424, 211.618 353.230 L 211.448 362.961 205.474 366.536 C 202.188 368.502, 196.211 373.349, 192.191 377.306 C 186.434 382.972, 183.889 386.490, 180.208 393.871 L 175.535 403.241 175.518 413.910 C 175.496 427.144, 176.647 429.525, 183.572 430.563 C 189.288 431.420, 191.097 430.214, 199.573 419.894 C 206.908 410.964, 213.642 406.063, 223.533 402.455 L 230.959 399.747 237 405.339 C 249.521 416.932, 262.088 423.343, 282.217 428.407 C 302.495 433.509, 316.864 435.322, 337 435.320 C 356.738 435.317, 366.836 433.952, 387.858 428.445 C 404.509 424.083, 417.223 419.244, 427.248 413.452 C 436.306 408.219, 443.918 406, 452.816 406 C 465.035 406, 474.374 409.530, 490.009 420.060 C 505.506 430.497, 520.118 434.015, 547.822 433.980 C 573.856 433.948, 586.929 431.516, 605 423.344 L 613.500 419.500 640.500 419.510 L 667.500 419.520 672.500 422.147 C 690.235 431.463, 720.172 437.946, 745.619 437.982 C 765.107 438.009, 779.965 434.943, 794 428 C 797.783 426.128, 805.589 424.111, 819 421.538 C 835.754 418.325, 839.653 417.889, 846.691 418.446 C 857.752 419.322, 866.936 422.017, 879.398 428.044 C 892.608 434.432, 899.182 435.741, 910.469 434.231 C 923.571 432.478, 936.053 426.820, 944.685 418.722 L 947.870 415.734 967.185 418.321 C 993.989 421.911, 998.671 422.156, 1017.742 420.971 C 1041.919 419.469, 1059.879 416.420, 1079.500 410.488 C 1099.857 404.334, 1108.081 402.787, 1120.500 402.777 C 1137.323 402.764, 1143.136 404.403, 1161 414.195 C 1171.837 420.135, 1183.323 424.672, 1192.379 426.590 C 1221.529 432.765, 1245.735 432.389, 1270.755 425.372 C 1279.722 422.857, 1280.406 422.810, 1292.755 423.851 C 1335.353 427.443, 1370.895 425.529, 1392.443 418.483 C 1413.537 411.585, 1424.345 404.266, 1435.976 389 C 1454.529 364.649, 1463.375 344.785, 1488.134 271.877 L 1495.477 250.253 1502.921 249.624 C 1508.724 249.133, 1512.169 248.121, 1518.549 245.033 C 1538.803 235.230, 1549.207 212.571, 1543.505 190.680 C 1541.550 183.173, 1539.004 178.310, 1533.476 171.524 L 1528.955 165.974 1532.587 160.296 C 1538.479 151.086, 1543.198 145.978, 1548.162 143.440 C 1557.156 138.840, 1560.555 130.648, 1560.377 114 C 1560.269 104.030, 1559.767 100.771, 1556.598 89.500 C 1554.588 82.350, 1551.348 69.108, 1549.397 60.074 C 1544.294 36.439, 1541.170 28.990, 1533.182 21.409 C 1529.009 17.450, 1524.045 15.273, 1515.020 13.444 C 1502.291 10.865, 1493.722 11.746, 1481.879 16.852 C 1473.899 20.292, 1471.157 21, 1465.810 21 C 1456.323 21, 1450.519 18.854, 1442.500 12.380 C 1438.650 9.272, 1433.577 5.864, 1431.227 4.807 C 1421.910 0.618, 1405.210 -1.175, 1397.139 1.147 M 1399.863 3.705 C 1395.104 4.438, 1386.661 10.389, 1381.713 16.500 C 1375.447 24.239, 1371.430 31.099, 1365.585 44.039 C 1362.987 49.792, 1358.121 58.775, 1354.774 64 C 1342.008 83.927, 1338.532 94.612, 1340.980 106.406 C 1341.966 111.153, 1342.806 112.538, 1346.640 115.740 C 1349.117 117.808, 1354.650 122.525, 1358.937 126.222 L 1366.731 132.945 1367.232 126.703 C 1367.551 122.723, 1368.707 118.539, 1370.421 115.156 C 1373.560 108.962, 1381.563 100.952, 1387.113 98.449 C 1391.415 96.509, 1391.744 95.863, 1389.416 93.930 C 1383.689 89.177, 1378.572 76.956, 1377.511 65.500 C 1375.756 46.537, 1385.811 25.250, 1400 17.893 C 1406.147 14.705, 1416.718 14.618, 1422.568 17.707 C 1433.774 23.624, 1440.963 37.866, 1440.988 54.201 C 1441.006 65.820, 1439.054 72.956, 1432.219 86.250 C 1432.007 86.662, 1434.683 87.002, 1438.167 87.004 C 1444.899 87.008, 1461.557 89.378, 1466.412 91.023 C 1468.014 91.565, 1469.460 91.874, 1469.625 91.708 C 1469.791 91.542, 1469.273 88.953, 1468.475 85.953 C 1463.739 68.157, 1469.514 46.220, 1481.971 34.687 C 1501.588 16.526, 1525.916 28.608, 1530.111 58.596 C 1532.101 72.818, 1527.722 89.531, 1519.321 99.784 C 1515.975 103.867, 1509.365 109.378, 1506.780 110.240 C 1506.180 110.440, 1507.673 112.644, 1510.097 115.139 C 1520.864 126.218, 1524.147 140.588, 1518.770 153.108 L 1517.221 156.716 1522.360 153.210 C 1525.187 151.281, 1532.466 147.325, 1538.535 144.418 C 1553.005 137.487, 1554.952 135.151, 1557.206 122.002 C 1558.678 113.419, 1557.128 102.713, 1551.597 83.259 C 1549.683 76.526, 1546.954 65.151, 1545.534 57.980 C 1541.500 37.620, 1537.029 27.931, 1528.976 22.098 C 1522.119 17.131, 1515.893 15.522, 1503.500 15.516 C 1492.931 15.511, 1492.187 15.655, 1484.500 19.197 C 1473.345 24.336, 1468.197 25.340, 1459.725 24.025 C 1451.632 22.770, 1447.491 20.782, 1440 14.557 C 1436.975 12.043, 1432.518 9.055, 1430.096 7.916 C 1422.294 4.247, 1408.672 2.350, 1399.863 3.705 M 1404.500 18.853 C 1394.026 22.277, 1384.189 35.297, 1381.121 49.799 C 1377.865 65.188, 1381.823 82.590, 1390.490 90.990 L 1394.001 94.393 1401.113 92.103 C 1405.025 90.843, 1412.772 89.067, 1418.328 88.156 C 1427.910 86.585, 1428.547 86.328, 1430.678 83.157 C 1434.034 78.167, 1436.924 69.694, 1438.062 61.511 C 1440.504 43.955, 1433.295 26.562, 1420.753 19.750 C 1417.511 17.989, 1408.641 17.500, 1404.500 18.853 M 1492.265 30.485 C 1483.711 34.203, 1475.550 44.372, 1471.909 55.850 C 1469.115 64.655, 1468.916 79.150, 1471.480 87.127 L 1473.288 92.754 1481.211 96.026 C 1485.569 97.825, 1492.141 101.245, 1495.817 103.627 C 1499.493 106.009, 1503.175 107.951, 1504 107.943 C 1508.396 107.902, 1517.449 99.387, 1521.826 91.176 C 1533.425 69.413, 1527.839 39.394, 1510.640 31.068 C 1505.622 28.639, 1497.131 28.369, 1492.265 30.485 M 1415.660 69.131 C 1410.915 71.889, 1410.593 80.540, 1415.097 84.250 C 1418.030 86.666, 1424.456 86.544, 1426.975 84.025 C 1432.931 78.069, 1429.194 67.961, 1421.061 68.030 C 1419.103 68.047, 1416.672 68.542, 1415.660 69.131 M 1478.775 76.518 C 1473.127 79.667, 1472.268 86.422, 1476.923 91.077 C 1481.517 95.671, 1488.524 94.532, 1491.332 88.735 C 1495.151 80.848, 1486.356 72.292, 1478.775 76.518 M 1413.582 91.608 C 1394.741 95.351, 1378.765 104.981, 1372.819 116.179 C 1370.949 119.700, 1370.522 122.074, 1370.512 129 C 1370.501 136.577, 1370.824 138.085, 1373.486 142.892 C 1378.482 151.912, 1389.879 161.869, 1402.533 168.269 C 1409.400 171.741, 1421.770 175.689, 1432 177.671 C 1442.213 179.651, 1464.812 179.886, 1473.500 178.103 C 1494.579 173.777, 1509.712 164.501, 1516.085 152 C 1517.830 148.577, 1518.378 145.825, 1518.378 140.500 C 1518.377 131.385, 1514.922 123.934, 1507.150 116.285 C 1494.371 103.708, 1479.350 96.328, 1457.700 91.988 C 1445.937 89.630, 1424.470 89.445, 1413.582 91.608 M 1351 123.745 C 1351 125.915, 1354.295 140.484, 1354.960 141.256 C 1355.695 142.108, 1367 140.073, 1367 139.088 C 1367 138.739, 1363.400 134.874, 1359 130.500 C 1354.600 126.126, 1351 123.086, 1351 123.745 M 418 135.669 C 413.881 136.501, 399.673 143.469, 393.380 147.742 C 385.388 153.169, 379.282 159.977, 378.456 164.383 C 377.582 169.040, 379.359 176.177, 384.131 187.179 C 389.384 199.291, 389.269 201.826, 383.191 207.904 C 377.385 213.710, 370.569 216.500, 358.544 217.995 C 348.984 219.182, 337.689 218.184, 329.756 215.451 C 324.439 213.619, 315.270 205.947, 314.460 202.652 C 314.169 201.469, 315.777 193.788, 318.032 185.585 C 323.381 166.130, 323.781 162.554, 321.247 156.826 C 318.835 151.372, 313.413 145.761, 307.777 142.886 C 304.098 141.009, 302.366 140.810, 293.049 141.194 C 284.382 141.551, 281.465 142.098, 276.776 144.245 C 266.428 148.983, 258.116 155.670, 253.559 162.925 C 250.054 168.504, 247 177.636, 247 182.538 C 247 187.438, 245.595 188.505, 244.562 184.390 C 242.217 175.046, 232.001 162.441, 222.046 156.606 C 209.484 149.244, 190.336 143.550, 167.500 140.387 C 149.155 137.846, 108.315 137.808, 95.500 140.319 C 75.481 144.243, 63.051 150.013, 53.062 160.017 C 45.713 167.378, 41.963 174.156, 38.803 185.793 C 36.999 192.438, 36.649 197.151, 36.263 220 C 35.797 247.556, 37.380 300.775, 38.926 309.551 C 39.416 312.329, 40.324 319.754, 40.944 326.051 C 43.051 347.435, 48.784 377.032, 52.998 388.274 C 54.896 393.340, 55.734 394.337, 59.831 396.400 C 67.355 400.189, 77.543 402.002, 91.197 401.983 C 111.377 401.954, 123.266 398.181, 128.731 390.071 C 131.567 385.862, 131.609 381.486, 128.931 369 C 127.811 363.775, 125.733 353.922, 124.315 347.104 L 121.736 334.708 124.118 332.883 C 128.804 329.293, 135.274 327.939, 152.500 326.944 C 161.850 326.404, 173.325 325.494, 178 324.921 C 187.461 323.761, 202.278 319.181, 208.692 315.433 C 214.936 311.785, 229.082 297.968, 233.862 290.850 C 240.589 280.832, 245.476 261.684, 246.695 240.578 C 247.296 230.167, 247.381 229.839, 248.515 233.578 C 250.666 240.668, 260.609 260.392, 264.846 265.974 C 267.131 268.984, 270.913 272.982, 273.250 274.858 C 288.940 287.450, 316.810 290.797, 350.887 284.181 C 370.429 280.388, 377.687 280.192, 384 283.291 C 390.274 286.371, 391.699 289.647, 389.197 295.242 C 383.349 308.318, 363.610 319.143, 342.766 320.704 C 330.331 321.636, 323.248 317.667, 317.071 306.307 C 312.124 297.209, 300.337 291.420, 284.483 290.302 C 277.713 289.824, 275.653 290.060, 271.826 291.753 C 262.991 295.661, 253.954 306.261, 249.780 317.613 C 248.120 322.129, 247.602 325.833, 247.558 333.518 C 247.504 342.829, 247.726 343.992, 250.699 350.018 C 252.459 353.583, 256.784 359.650, 260.311 363.500 C 283.816 389.160, 325.419 403.570, 370.500 401.667 C 403.140 400.290, 424.306 391.782, 444.116 372.076 C 450.377 365.848, 452.556 362.783, 456.360 354.852 C 465.570 335.649, 470.772 316.254, 473.618 290.501 C 474.469 282.801, 475.276 276.391, 475.411 276.256 C 475.546 276.120, 477.197 279.045, 479.078 282.755 C 482.040 288.592, 483.173 289.836, 487.500 292 L 492.500 294.500 527 294.500 C 571.016 294.499, 585.016 292.913, 591.320 287.212 C 592.361 286.270, 594.160 283.700, 595.317 281.500 L 597.421 277.500 598.240 285 C 599.086 292.743, 597.810 310.058, 595.846 317.494 C 593.091 327.929, 586.514 334.934, 574.957 339.745 C 558.238 346.706, 548.283 346.403, 543.235 338.782 C 540.791 335.093, 540.465 333.581, 540.167 324.577 C 539.846 314.829, 539.731 314.391, 536.667 311.165 C 532.035 306.286, 529.327 305.195, 516.275 302.944 C 506.069 301.184, 503.368 301.061, 496 302.020 C 482.104 303.829, 479.064 306.789, 476.348 321.156 C 471.871 344.839, 478.616 369.068, 493.721 383.565 C 499.716 389.318, 514.206 396.576, 523.500 398.480 C 535.192 400.876, 556.618 401.927, 573.766 400.946 C 596.662 399.637, 609.436 395.859, 622.505 386.534 C 625.949 384.076, 630.019 380.588, 631.547 378.782 C 639.223 369.719, 643.813 351.930, 647.490 317 C 647.751 314.525, 648.261 301.475, 648.625 288 C 649.944 239.107, 644.495 187.402, 634.839 157.181 C 633.202 152.055, 631.018 147.018, 629.986 145.986 C 627.325 143.325, 618.681 140.996, 611.568 141.024 C 599.449 141.071, 593.162 144.017, 591.665 150.347 C 590.871 153.704, 590.513 154, 587.246 154 C 585.290 154, 573.748 152.368, 561.595 150.374 C 543.060 147.332, 536.841 146.728, 523 146.624 C 503.668 146.479, 500.295 147.483, 492.193 155.802 C 485.023 163.163, 473.787 183.216, 472.498 190.950 L 471.756 195.401 468.925 187.634 C 460.187 163.667, 446.454 143.787, 434.708 138.101 C 430.126 135.883, 422.464 134.768, 418 135.669 M 1029.910 141.216 C 1013.826 142.556, 999.615 148.682, 994.962 156.280 C 993.878 158.051, 991.857 163.200, 990.471 167.723 C 984.114 188.476, 982.729 189.169, 972.363 176.796 C 964.765 167.727, 952.907 158.867, 945.775 156.929 C 931.974 153.180, 910.045 160.969, 896.389 174.470 C 890.508 180.283, 888.402 183.317, 884.219 192 C 877.767 205.389, 874.596 215.117, 871.539 230.889 C 864.949 264.898, 865.913 296.410, 874.563 329.760 C 882.375 359.877, 891.447 376.971, 906.557 390.050 C 914.597 397.008, 916.113 397.500, 929.500 397.500 C 940.486 397.500, 941.993 397.269, 947.340 394.764 C 962.511 387.657, 972.220 370.771, 973.653 349 C 974.618 334.342, 970.459 322.986, 954.217 295.935 C 951.431 291.296, 946.305 281.680, 942.826 274.567 L 936.500 261.635 936.500 252.567 C 936.500 243.359, 937.959 237.614, 940.549 236.620 C 942.764 235.770, 948.744 243.481, 963.492 266.203 C 979.206 290.412, 984.725 297.937, 989.297 301.387 C 998.210 308.112, 1007.493 305.840, 1013.588 295.440 C 1016.385 290.668, 1023.349 266.730, 1028.455 244.335 C 1034.046 219.816, 1035.763 216.649, 1041.450 220.375 C 1045.259 222.871, 1050 233.447, 1050 239.448 C 1050 247.533, 1047.453 266.022, 1042.936 290.726 C 1039.187 311.234, 1038.819 314.644, 1039.238 325 C 1039.916 341.754, 1043.387 349.276, 1056.488 362.376 C 1064.544 370.433, 1069.342 372.460, 1078.747 371.783 C 1087.309 371.165, 1093.784 367.964, 1101.168 360.697 C 1107.559 354.407, 1111.692 347.576, 1115.404 337.163 C 1118.020 329.824, 1120.874 315.031, 1121.126 307.500 C 1121.216 304.807, 1121.539 305.909, 1122.115 310.876 C 1123.134 319.659, 1127.148 329.441, 1135.507 343.515 C 1156.616 379.056, 1200.578 401.378, 1249.500 401.394 C 1262.189 401.399, 1264.241 401.142, 1271.413 398.652 C 1275.765 397.141, 1282.065 394.309, 1285.413 392.359 C 1299.781 383.991, 1317.982 368.126, 1327.068 356.051 C 1338.682 340.616, 1348.341 313.208, 1345.125 304.810 C 1343.855 301.492, 1339.180 300.010, 1330 300.014 C 1321.473 300.018, 1281.511 303.786, 1276.935 305.018 C 1272.852 306.117, 1270.407 308.523, 1266.544 315.243 C 1262.532 322.224, 1255.551 329.555, 1250.662 331.921 C 1245.216 334.558, 1239.606 334.551, 1230.064 331.895 C 1217.063 328.277, 1208.609 323.775, 1200.975 316.405 C 1192.510 308.234, 1190.533 303.738, 1190.529 292.660 C 1190.526 282.608, 1191.590 281.570, 1201 282.443 C 1227.508 284.905, 1284.546 285.716, 1308.500 283.973 C 1331.204 282.320, 1340.288 279.685, 1341.623 274.364 C 1342.752 269.868, 1341.025 249.041, 1338.443 236 C 1336.444 225.908, 1334.923 221.342, 1330.545 212.297 C 1323.322 197.376, 1319.486 191.571, 1310.827 182.454 C 1296.837 167.727, 1279.155 154.857, 1266.128 149.919 C 1249.125 143.475, 1227.928 140.718, 1211.842 142.858 C 1181.382 146.911, 1149.948 170.180, 1135.618 199.282 C 1129.551 211.604, 1126.077 222.565, 1124.707 233.710 L 1123.575 242.920 1121.847 232.657 C 1119.878 220.962, 1115.465 206.467, 1110.030 193.839 C 1099.578 169.553, 1079.751 149.119, 1060.742 143.041 C 1055.302 141.302, 1039.853 140.387, 1029.910 141.216 M 777.500 144.142 C 753.693 145.649, 722.929 154.509, 697.720 167.120 C 682.178 174.895, 671.453 184.252, 665.964 194.827 C 663.938 198.730, 663.774 200.103, 664.293 208.827 C 665.308 225.909, 670.267 236.395, 679.500 240.986 C 683.810 243.130, 685.825 243.466, 694.102 243.426 C 706.491 243.366, 711.074 241.215, 724 229.390 C 735.869 218.533, 746.247 210.659, 752.041 208.115 C 758.248 205.389, 768.024 203.538, 771.550 204.422 C 775.645 205.447, 792.946 223.133, 795.943 229.357 C 797.413 232.408, 798.467 236.800, 798.780 241.167 L 799.277 248.118 793.527 253.688 L 787.777 259.257 782.412 258.703 C 778.891 258.340, 771.888 255.881, 762.047 251.553 C 740.801 242.210, 736.891 241.320, 723.096 242.683 C 713.817 243.600, 710.777 244.359, 704.557 247.312 C 687.985 255.183, 674.680 266.184, 665.950 279.236 C 652.602 299.190, 648.440 312.939, 650.916 328.897 C 654.800 353.927, 670.299 371.254, 702.500 386.563 C 724.644 397.091, 741.677 400.988, 768.729 401.718 C 796.019 402.454, 807.915 400.401, 818.946 393.054 C 825.316 388.811, 836.540 377.499, 841.325 370.500 C 845.735 364.049, 852.588 348.395, 856.115 336.716 C 861.106 320.188, 861.227 319.008, 861.708 281.986 L 862.169 246.472 859.095 231.462 C 853.824 205.731, 847.599 190.098, 835.622 172.511 C 818.699 147.661, 807.588 142.238, 777.500 144.142 M 1356.579 145.103 C 1345.291 148.985, 1336.011 157.489, 1330.696 168.820 C 1324.866 181.248, 1326.031 199.835, 1333.307 210.483 C 1338.949 218.739, 1345.397 224.333, 1353.278 227.806 C 1358.269 230.006, 1372.666 232.449, 1375.111 231.511 C 1375.890 231.212, 1377.545 228.747, 1378.791 226.032 C 1383.508 215.749, 1390.867 213.978, 1408.500 218.881 C 1420.512 222.221, 1433.171 223.979, 1445.300 223.992 C 1454.821 224.002, 1457.296 225.136, 1466.009 233.485 C 1476.734 243.763, 1487.094 247.698, 1500.890 246.736 C 1518.289 245.522, 1532.560 235.065, 1539 218.810 C 1541.110 213.485, 1541.499 210.862, 1541.493 202 C 1541.486 191.923, 1541.335 191.193, 1537.768 183.881 C 1533.927 176.008, 1525.420 166.820, 1518.804 163.399 C 1515.932 161.913, 1515.619 161.936, 1513.790 163.765 C 1511.856 165.700, 1511.876 165.738, 1516.204 168.274 C 1522.352 171.876, 1529.674 180.055, 1532.772 186.780 C 1535.047 191.719, 1535.413 193.868, 1535.453 202.521 C 1535.497 211.859, 1535.278 212.993, 1532.242 219.160 C 1528.164 227.443, 1521.408 234.149, 1513 238.260 C 1507.188 241.102, 1505.548 241.442, 1497.500 241.469 C 1483.646 241.517, 1473.255 236.601, 1465.379 226.274 C 1457.685 216.187, 1455.369 200.972, 1459.667 188.750 L 1461.690 183 1454.569 183 C 1433.432 183, 1406.434 175.854, 1393.928 166.948 C 1390.269 164.343, 1388.057 165.336, 1390.792 168.355 C 1391.861 169.535, 1393.554 171.850, 1394.555 173.500 L 1396.375 176.500 1392.890 173.250 C 1390.973 171.463, 1389.131 170, 1388.796 170 C 1388.310 170, 1385 178.438, 1385 179.678 C 1385 179.855, 1386.323 180, 1387.941 180 C 1389.559 180, 1391.140 180.417, 1391.455 180.927 C 1391.770 181.437, 1391.732 185.037, 1391.370 188.927 L 1390.713 196 1385.433 196 L 1380.153 196 1379.295 201.250 L 1378.438 206.500 1371.969 206.250 C 1368.411 206.113, 1364.938 205.790, 1364.250 205.532 C 1363.482 205.244, 1363 203.158, 1363 200.125 L 1363 195.188 1357.960 194.494 L 1352.919 193.801 1353.210 186.151 L 1353.500 178.500 1359.197 178.202 L 1364.894 177.903 1365.197 173.202 L 1365.500 168.500 1370.750 168.198 C 1375.799 167.907, 1376 167.785, 1376 165.014 C 1376 162.639, 1375.517 162.060, 1373.250 161.716 L 1370.500 161.300 1373.145 161.150 C 1375.473 161.018, 1375.836 160.517, 1376.175 156.965 C 1376.493 153.632, 1375.958 152.067, 1373.099 147.965 C 1370.032 143.565, 1369.232 143.004, 1366.069 143.033 C 1364.106 143.052, 1359.835 143.983, 1356.579 145.103 M 1378.617 173.130 C 1378.238 182.002, 1378.080 189.413, 1378.266 189.599 C 1378.451 189.785, 1380.599 183.839, 1383.038 176.385 L 1387.472 162.833 1383.986 159.944 C 1382.069 158.354, 1380.232 157.042, 1379.903 157.027 C 1379.575 157.012, 1378.996 164.259, 1378.617 173.130 M 1495.606 174.142 L 1491.711 176.196 1492.350 185.848 C 1492.702 191.157, 1492.992 197.502, 1492.995 199.950 C 1493.003 207.226, 1494.503 203.403, 1497.486 188.500 C 1499.028 180.800, 1500.497 173.938, 1500.751 173.250 C 1501.389 171.528, 1500.158 171.741, 1495.606 174.142 M 1477.878 187.430 C 1472.587 190.931, 1467.524 194.841, 1466.628 196.120 C 1462.769 201.630, 1466.611 210.274, 1473.493 211.565 C 1476.087 212.051, 1478.027 211.566, 1481.890 209.463 C 1490.236 204.921, 1490.932 203.923, 1490.389 197.276 C 1489.400 185.165, 1488.834 181.001, 1488.178 181.033 C 1487.805 181.051, 1483.170 183.930, 1477.878 187.430 M 547.613 190.068 C 540.128 191.912, 536.339 194.849, 533.650 200.894 C 528.737 211.938, 527.526 227.191, 531.020 234.039 C 535.139 242.114, 545.339 246.210, 558.160 244.939 C 567.618 244.001, 572.395 241.818, 576.060 236.759 C 580.727 230.315, 582.286 224.063, 581.822 213.646 C 581.474 205.854, 580.976 203.697, 578.457 199.078 C 573.953 190.820, 571.620 189.537, 560.679 189.306 C 555.631 189.199, 549.751 189.542, 547.613 190.068 M 1411.692 196.095 C 1405.719 199.679, 1404.922 200.506, 1405.192 202.840 C 1405.663 206.907, 1408.848 206.650, 1416.360 201.940 C 1422.937 197.816, 1424.272 195.672, 1421.800 193.200 C 1419.997 191.397, 1419.090 191.657, 1411.692 196.095 M 1470.923 195.923 C 1469.315 197.531, 1468 199.815, 1468 201 C 1468 203.784, 1473.216 209, 1476 209 C 1478.784 209, 1484 203.784, 1484 201 C 1484 198.216, 1478.784 193, 1476 193 C 1474.815 193, 1472.531 194.315, 1470.923 195.923 M 1435.373 198.907 C 1428.194 203.461, 1427.545 204.282, 1428.989 206.979 C 1430.506 209.814, 1432.222 209.533, 1439.556 205.250 C 1446.238 201.348, 1448.007 198.918, 1445.960 196.452 C 1444.100 194.210, 1442.012 194.694, 1435.373 198.907 M 1505.378 200.130 C 1501.045 202.951, 1497.169 205.763, 1496.765 206.380 C 1495.220 208.737, 1496.108 211.704, 1499 213.842 C 1504.904 218.207, 1501.946 227, 1494.573 227 C 1492.061 227, 1490.591 226.296, 1489.073 224.365 C 1486.441 221.020, 1486.443 217.977, 1489.080 214.625 C 1492.324 210.501, 1490.848 208.998, 1487.168 212.678 C 1484.570 215.276, 1484.006 216.625, 1484.032 220.173 C 1484.080 226.688, 1487.560 230, 1494.358 230 C 1498.931 230, 1524.526 213.376, 1526.026 209.432 C 1527.810 204.739, 1527.182 201.028, 1524.077 197.923 C 1519.465 193.311, 1515.051 193.832, 1505.378 200.130 M 135.500 199.399 C 129.061 201.435, 125.659 203.562, 121.333 208.254 C 116.109 213.922, 113.028 222.221, 112.296 232.600 C 111.791 239.746, 112.001 241.371, 113.948 245.393 C 119.534 256.933, 132.834 265.392, 145.500 265.461 C 151.170 265.493, 153.569 264.975, 158.125 262.738 C 164.439 259.637, 171.727 252.416, 174.982 246.036 C 178.896 238.364, 180.986 224.181, 179.384 216.169 C 178.525 211.875, 172.654 205.362, 167.138 202.584 C 158.313 198.140, 144.027 196.702, 135.500 199.399 M 1511 200 C 1508.022 202.978, 1508.333 208.330, 1511.635 210.927 C 1515.130 213.677, 1518.546 213.545, 1521.545 210.545 C 1524.545 207.546, 1524.677 204.130, 1521.927 200.635 C 1519.330 197.333, 1513.978 197.022, 1511 200 M 1227.500 205.343 C 1214.686 209.574, 1202 220.137, 1202 226.577 C 1202 229.499, 1207.931 234.448, 1213.847 236.464 C 1220.038 238.573, 1237.349 239.387, 1250.684 238.195 C 1259.826 237.379, 1262.798 236.690, 1266.958 234.426 C 1275.456 229.801, 1274.821 225.858, 1264.222 217.441 C 1251.486 207.326, 1236.474 202.380, 1227.500 205.343 M 1391.500 218.940 C 1386.024 220.241, 1383.835 222.118, 1381.278 227.705 C 1373.566 244.549, 1386.868 261.174, 1412.254 266.417 C 1421.931 268.416, 1438.038 268.475, 1444.568 266.535 C 1459.219 262.183, 1467.902 249.322, 1464.056 237.669 C 1461.888 231.101, 1453.037 225.506, 1446.726 226.712 C 1441.739 227.665, 1420.325 224.967, 1409 221.958 C 1393.901 217.947, 1394.930 218.124, 1391.500 218.940 M 1351.418 231.897 C 1352.311 235.010, 1354.072 248.676, 1355.477 263.403 C 1356.666 275.863, 1356.681 278.814, 1355.567 281.403 C 1353.793 285.528, 1350.955 288.362, 1346.928 290.030 L 1343.616 291.402 1348.496 293.644 C 1351.180 294.877, 1353.729 295.667, 1354.162 295.400 C 1355.423 294.620, 1357.943 285.229, 1359.500 275.500 C 1360.293 270.550, 1360.997 259.133, 1361.064 250.128 L 1361.187 233.756 1356.073 232.025 C 1351.456 230.462, 1351.003 230.449, 1351.418 231.897 M 122.397 234.409 C 120.723 238.769, 127.991 248.870, 135.415 252.502 C 142.723 256.078, 144 255.507, 144 248.666 C 144 242.009, 141.951 239.083, 135.287 236.225 C 128.001 233.101, 123.160 232.419, 122.397 234.409 M 1364.994 249.750 C 1364.988 267.100, 1363.300 280.800, 1359.851 291.500 C 1358.014 297.197, 1357.643 300.361, 1357.854 308.500 C 1358.145 319.723, 1356.991 325.209, 1351.337 339.500 C 1346.403 351.971, 1339.345 364.045, 1329.431 376.975 C 1324.794 383.023, 1321 388.358, 1321 388.832 C 1321 390.448, 1328.361 397.277, 1334.103 400.988 C 1345.914 408.622, 1369.279 413.982, 1384.500 412.550 C 1398.043 411.276, 1413.918 406.588, 1419.405 402.241 C 1427.370 395.933, 1441.604 376.806, 1450.371 360.630 C 1457.771 346.975, 1467.719 321.107, 1484.372 272.211 C 1489.683 256.617, 1491.593 249.799, 1490.731 249.511 C 1490.054 249.284, 1487.475 248.589, 1485 247.967 C 1480.705 246.886, 1475.499 244.377, 1469.941 240.709 L 1467.382 239.020 1467.309 243.849 C 1467.172 252.885, 1460.855 262.520, 1452.223 266.857 C 1438.778 273.614, 1409.408 271.790, 1393.664 263.221 C 1383.894 257.903, 1376 246.329, 1376 237.322 L 1376 234 1370.500 234 L 1365 234 1364.994 249.750 M 743 305.727 C 739.383 307.100, 732.808 312.388, 730.506 315.776 C 727.447 320.279, 727.390 322.109, 730.138 327.785 C 734.321 336.425, 751.606 344.277, 766.620 344.357 C 778.045 344.418, 782.273 341.313, 782.273 332.861 C 782.273 325.247, 771.191 312.838, 759.500 307.362 C 754.689 305.108, 746.713 304.318, 743 305.727 M 1001.370 320.250 C 1000.282 321.488, 998.091 324.300, 996.502 326.500 C 994.912 328.700, 991.674 332.331, 989.306 334.570 C 985.512 338.156, 984.996 339.166, 984.965 343.070 C 984.946 345.506, 984.280 351.100, 983.485 355.500 C 981.384 367.124, 981.290 366.771, 986.725 367.586 C 991.773 368.343, 1006.635 366.788, 1008.008 365.359 C 1008.462 364.886, 1008.165 360.900, 1007.348 356.500 C 1006.266 350.669, 1006.020 344.801, 1006.441 334.856 C 1006.759 327.352, 1006.741 320.489, 1006.402 319.606 C 1005.543 317.367, 1003.697 317.603, 1001.370 320.250 M 553.189 326.714 C 550.279 327.269, 549.417 329.424, 550.847 332.564 C 551.740 334.523, 552.701 335, 555.756 335 C 560.843 335, 564 332.680, 564 328.943 C 564 326.126, 563.818 326.006, 559.750 326.136 C 557.413 326.211, 554.460 326.471, 553.189 326.714 M 206 375.845 C 197.655 381.980, 191.752 388.727, 187.921 396.510 C 184.306 403.852, 182.136 414.749, 183.624 418.084 C 184.562 420.185, 184.936 419.865, 189.394 413.159 C 194.303 405.775, 203.186 397.481, 212.956 391.159 C 216.005 389.187, 218.682 387.450, 218.904 387.299 C 219.126 387.149, 217.936 383.982, 216.258 380.263 C 214.581 376.543, 213.050 372.952, 212.855 372.283 C 212.638 371.541, 209.966 372.929, 206 375.845" stroke="none" fill="#000000" fill-rule="evenodd"/><path d="M 1400 3.930 C 1388.499 6.230, 1377.928 18.354, 1366.613 42.224 C 1363.081 49.676, 1357.387 60.178, 1353.960 65.563 C 1342.469 83.619, 1339.198 93.429, 1340.992 104.454 C 1342.138 111.489, 1343.066 113.110, 1348.233 117.099 C 1350.580 118.910, 1355.763 123.270, 1359.750 126.786 L 1367 133.180 1367 128.216 C 1367 117.647, 1373.589 106.981, 1384.462 99.950 L 1390.988 95.729 1387.384 91.740 C 1378.154 81.523, 1374.784 63.983, 1378.935 47.756 C 1381.399 38.121, 1384.668 31.697, 1390.292 25.443 C 1397.959 16.915, 1408.832 13.262, 1418.665 15.910 C 1423.228 17.139, 1431.700 24.142, 1434.854 29.294 C 1443.093 42.748, 1443.129 65.442, 1434.937 81.250 L 1431.957 87 1439.731 87 C 1446.805 87, 1466.676 90.064, 1469.028 91.517 C 1470.247 92.270, 1470.266 92.448, 1468.489 86.591 C 1466.549 80.196, 1466.571 65.067, 1468.531 57.542 C 1471.722 45.291, 1480.182 33.595, 1489.370 28.732 C 1492.550 27.049, 1495.243 26.541, 1501.078 26.523 C 1507.793 26.503, 1509.216 26.845, 1513.560 29.532 C 1530.402 39.944, 1535.768 67.120, 1525.447 89.733 C 1521.851 97.612, 1513.823 107.002, 1508.962 109.016 L 1506.024 110.233 1510.665 115.366 C 1517.670 123.116, 1521.419 131.860, 1521.440 140.500 C 1521.452 145.673, 1520.866 148.794, 1519.193 152.458 L 1516.929 157.416 1519.214 155.333 C 1522.414 152.417, 1536.422 144.563, 1543 141.996 C 1550.121 139.217, 1552.532 136.867, 1554.985 130.310 C 1559.378 118.569, 1558.585 109.864, 1550.219 78 C 1548.558 71.675, 1545.998 60.929, 1544.529 54.119 C 1539.246 29.622, 1532.225 20.386, 1515.977 16.556 C 1503.744 13.673, 1494.811 14.722, 1481.867 20.562 C 1472.219 24.916, 1464.698 25.807, 1456.131 23.612 C 1449.658 21.954, 1446.926 20.406, 1439 13.906 C 1432.384 8.481, 1427.186 6.217, 1417.445 4.518 C 1408.188 2.904, 1405.571 2.816, 1400 3.930 M 1402.435 19.890 C 1386.745 27.016, 1377.085 50.108, 1381.005 71.114 C 1382.297 78.034, 1387.028 87.695, 1390.981 91.481 L 1394.073 94.444 1399.286 92.559 C 1402.154 91.522, 1408.100 89.912, 1412.500 88.979 C 1419.646 87.465, 1420.233 87.175, 1418 86.257 C 1413.878 84.563, 1411.545 81.218, 1411.545 77 C 1411.545 72.466, 1413.979 69.332, 1418.419 68.148 C 1424.679 66.479, 1430 70.449, 1430 76.788 C 1430 81.339, 1428.439 83.903, 1424.671 85.542 L 1421.500 86.922 1424.682 86.961 C 1427.073 86.990, 1428.374 86.283, 1429.918 84.115 C 1439.118 71.195, 1440.914 47.928, 1433.809 33.705 C 1431.032 28.145, 1425.072 21.948, 1420.500 19.866 C 1415.368 17.528, 1407.612 17.539, 1402.435 19.890 M 1494.554 29.668 C 1491.678 30.487, 1485.901 34.335, 1482.618 37.618 C 1478.637 41.599, 1475.347 46.998, 1472.872 53.612 C 1467.671 67.514, 1469.634 92.045, 1476.083 93.732 C 1479.640 94.662, 1493.865 101.811, 1498.489 104.993 C 1500.893 106.647, 1503.351 108, 1503.950 108 C 1505.904 108, 1512.512 103.319, 1515.727 99.658 C 1520.879 93.791, 1523.902 87.770, 1526.140 78.918 C 1530.814 60.436, 1525.299 40.889, 1513.082 32.628 C 1509.775 30.393, 1507.467 29.685, 1502.667 29.435 C 1499.275 29.259, 1495.624 29.363, 1494.554 29.668 M 1476.923 77.923 C 1470.866 83.980, 1474.474 94, 1482.712 94 C 1487.217 94, 1489.636 92.604, 1491.553 88.897 C 1493.636 84.870, 1492.650 80.725, 1488.850 77.527 C 1484.758 74.084, 1480.625 74.221, 1476.923 77.923 M 1413 91.979 C 1396.790 95.484, 1386.048 100.884, 1378.198 109.474 C 1366.369 122.417, 1367.368 138.028, 1380.944 152.370 C 1397.205 169.550, 1423.938 179.297, 1454.500 179.191 C 1477.928 179.109, 1496.673 173.097, 1508.565 161.850 C 1522.488 148.683, 1521.579 130.490, 1506.257 115.639 C 1499.021 108.626, 1496.785 107.052, 1487 102.088 C 1465.521 91.191, 1435.566 87.099, 1413 91.979 M 1351.350 125.566 C 1351.680 126.630, 1352.587 130.563, 1353.365 134.306 C 1354.143 138.050, 1354.942 141.273, 1355.140 141.469 C 1355.338 141.665, 1358.186 141.287, 1361.469 140.628 L 1367.438 139.431 1363.034 134.653 C 1360.612 132.025, 1356.857 128.471, 1354.689 126.754 C 1351.506 124.233, 1350.864 124.004, 1351.350 125.566 M 1360.873 143.938 C 1355.421 145.001, 1346.818 149.528, 1341.720 154.015 C 1327.084 166.898, 1322.783 188.444, 1331.308 206.168 C 1335.727 215.354, 1343.305 222.844, 1352.568 227.178 C 1357.900 229.674, 1360.802 230.341, 1367.826 230.689 L 1376.500 231.118 1379 225.855 C 1383.531 216.317, 1390.184 213.785, 1402.141 217.045 C 1417.433 221.215, 1426.870 222.884, 1438.500 223.478 C 1456.548 224.399, 1455.959 224.199, 1464.929 232.435 C 1473.376 240.190, 1478.631 243.284, 1487.256 245.580 C 1516.798 253.445, 1546.036 226.782, 1541.315 196.282 C 1539.362 183.660, 1531.306 171.194, 1521.321 165.342 C 1517.417 163.054, 1516.547 162.886, 1514.187 163.964 L 1511.500 165.192 1515.060 167.023 C 1525.216 172.244, 1533.783 184.035, 1535.982 195.817 C 1539.138 212.734, 1529.326 231.270, 1513.218 238.820 C 1508.095 241.221, 1506.356 241.499, 1496.500 241.488 C 1486.382 241.477, 1485.031 241.243, 1479.646 238.572 C 1466.937 232.267, 1458.330 219.661, 1457.332 205.894 C 1456.838 199.080, 1458.147 190.274, 1460.476 184.750 C 1461.147 183.160, 1460.406 183, 1452.357 182.996 C 1431.622 182.987, 1405.695 175.944, 1392.750 166.805 C 1391.237 165.737, 1390 165.074, 1390 165.331 C 1390 165.589, 1391.575 168.139, 1393.500 171 C 1398.227 178.024, 1397.919 179.501, 1392.873 174 L 1388.746 169.500 1387.771 172 C 1384.903 179.355, 1384.938 179.863, 1388.336 180.193 C 1391.252 180.476, 1391.523 180.814, 1391.791 184.500 C 1391.951 186.700, 1391.696 190.300, 1391.224 192.500 L 1390.366 196.500 1385.183 196.220 L 1380 195.940 1380 199.536 C 1380 206.780, 1377.401 208.119, 1366.750 206.358 L 1363 205.738 1363 200.369 L 1363 195 1359.191 195 C 1352.882 195, 1351.962 193.634, 1352.788 185.500 L 1353.500 178.500 1358.646 178.201 C 1364.154 177.882, 1364.955 176.954, 1364.986 170.857 C 1365.003 167.644, 1366.468 166.985, 1371.957 167.721 C 1376.110 168.278, 1376.156 168.250, 1375.830 165.392 C 1375.526 162.727, 1375.107 162.453, 1370.500 161.907 C 1367.333 161.532, 1366.600 161.252, 1368.500 161.143 C 1370.150 161.050, 1372.513 160.701, 1373.750 160.370 C 1377.143 159.460, 1376.727 154.369, 1372.750 148.138 C 1369.283 142.704, 1368.541 142.442, 1360.873 143.938 M 1378.765 172.750 C 1378.489 181.412, 1378.387 188.646, 1378.540 188.825 C 1378.692 189.004, 1380.689 183.212, 1382.977 175.955 L 1387.137 162.760 1383.818 159.921 C 1381.993 158.359, 1380.223 157.063, 1379.884 157.041 C 1379.545 157.018, 1379.042 164.088, 1378.765 172.750 M 1495.666 174.111 L 1491.833 176.134 1492.528 188.317 C 1492.911 195.018, 1493.516 200.820, 1493.873 201.211 C 1494.229 201.602, 1495.914 195.189, 1497.617 186.961 C 1499.319 178.732, 1500.439 172.020, 1500.106 172.044 C 1499.773 172.069, 1497.775 172.999, 1495.666 174.111 M 1479 187.354 C 1473.775 190.862, 1468.776 194.580, 1467.891 195.616 C 1465.454 198.469, 1464.955 201.958, 1466.468 205.577 C 1469.206 212.130, 1475.683 212.801, 1484.281 207.423 L 1490 203.846 1489.912 197.173 C 1489.864 193.503, 1489.527 188.357, 1489.162 185.738 L 1488.500 180.975 1479 187.354 M 1411.221 196.002 C 1404.455 200.295, 1403.077 202.183, 1405.011 204.513 C 1406.994 206.903, 1410.081 206.247, 1416.750 202.016 C 1421.601 198.939, 1423 197.509, 1423 195.632 C 1423 193.364, 1421.355 191.988, 1418.668 192.010 C 1418.026 192.015, 1414.675 193.811, 1411.221 196.002 M 1470.923 195.923 C 1469.315 197.531, 1468 199.815, 1468 201 C 1468 203.784, 1473.216 209, 1476 209 C 1478.784 209, 1484 203.784, 1484 201 C 1484 198.216, 1478.784 193, 1476 193 C 1474.815 193, 1472.531 194.315, 1470.923 195.923 M 1435.248 198.733 C 1428.744 202.588, 1426.990 205.078, 1429.040 207.548 C 1430.929 209.824, 1434.013 209.165, 1440.500 205.097 C 1446.658 201.236, 1448.072 198.997, 1445.960 196.452 C 1444.130 194.247, 1442.079 194.684, 1435.248 198.733 M 1505.641 200.608 C 1495.282 207.318, 1493.966 209.857, 1498.862 213.689 C 1504.839 218.366, 1502.056 227, 1494.573 227 C 1492.061 227, 1490.591 226.296, 1489.073 224.365 C 1486.463 221.048, 1486.440 217.981, 1489 214.727 C 1492.370 210.443, 1491.165 209.265, 1487.473 213.235 C 1481.233 219.947, 1483.859 228.501, 1492.516 229.662 C 1496.236 230.161, 1497.438 229.601, 1509.014 221.989 C 1515.881 217.473, 1522.489 212.871, 1523.698 211.763 C 1530.112 205.885, 1525.567 195, 1516.698 195 C 1515.378 195, 1510.402 197.523, 1505.641 200.608 M 1511 200 C 1508.022 202.978, 1508.333 208.330, 1511.635 210.927 C 1515.130 213.677, 1518.546 213.545, 1521.545 210.545 C 1524.545 207.546, 1524.677 204.130, 1521.927 200.635 C 1519.330 197.333, 1513.978 197.022, 1511 200 M 1386.832 220.709 C 1380.555 224.603, 1377.600 235.270, 1380.434 243.802 C 1385.133 257.950, 1401.085 266.391, 1425.581 267.692 C 1441.448 268.535, 1450.862 265.985, 1457.914 258.933 C 1462.753 254.093, 1464.393 250.202, 1464.449 243.425 C 1464.492 238.269, 1464.077 236.795, 1461.698 233.674 C 1457.652 228.365, 1454.341 227, 1445.510 227 C 1433.514 227, 1419.804 225.128, 1408.453 221.941 C 1396.650 218.627, 1390.731 218.289, 1386.832 220.709 M 1365.944 237.993 C 1365.522 264.597, 1362.913 285.781, 1358.945 294.823 C 1357.363 298.427, 1357.190 300.174, 1357.900 305.323 C 1360.514 324.270, 1348.369 354.151, 1327.598 379.878 C 1320.164 389.087, 1320.158 389.200, 1326.823 395.221 C 1345.113 411.745, 1377.886 416.928, 1406.500 407.824 C 1415.397 404.993, 1417.148 404.027, 1422.377 399.071 C 1437.557 384.682, 1450.998 362.313, 1463.281 331 C 1468.196 318.469, 1490.585 254.681, 1491.151 251.595 C 1491.435 250.044, 1490.574 249.474, 1486.500 248.519 C 1481.405 247.326, 1475.575 244.771, 1470.892 241.678 L 1468.284 239.956 1467.685 245.014 C 1466.451 255.429, 1457.266 266.490, 1447.688 269.095 C 1427.371 274.621, 1398.725 269.477, 1385.590 257.945 C 1380.963 253.882, 1376.001 243.872, 1375.997 238.590 L 1375.994 234.500 1370.997 234.493 L 1366 234.485 1365.944 237.993 M 814.066 290.265 C 811.738 291.446, 808.977 294.541, 795.472 311.106 C 789.209 318.787, 786.175 320.928, 781.038 321.287 C 779.369 321.404, 778.003 321.567, 778.002 321.648 C 778.001 321.729, 779.120 323.754, 780.488 326.148 C 783.326 331.113, 783.597 333.945, 781.602 337.802 C 779.004 342.826, 776.509 344.231, 769.259 344.749 C 761.386 345.313, 752.649 343.405, 743.500 339.126 C 735.866 335.555, 731.690 332.011, 729.521 327.262 C 728.575 325.193, 726.916 321.608, 725.833 319.295 C 724.751 316.981, 723.609 312.481, 723.297 309.295 C 722.606 302.246, 721.723 301, 717.415 301 C 714.774 301, 712.764 302.170, 707.808 306.593 C 699.202 314.271, 694.165 317.024, 687.455 317.717 L 681.817 318.299 674.658 310.645 C 670.577 306.281, 666.682 302.993, 665.597 302.996 C 664.550 302.998, 661.314 305.250, 658.406 308 C 655.499 310.750, 652.593 313, 651.949 313 C 650.002 313, 651.266 333.398, 653.630 340.127 C 658.185 353.095, 668.510 365.560, 682.537 375.025 C 693.099 382.152, 712.274 391.187, 724.500 394.797 C 743.132 400.297, 752.383 401.505, 775.500 401.452 C 798.871 401.399, 804.514 400.445, 815.500 394.687 C 822.941 390.788, 838.132 375.816, 842.921 367.662 C 850.472 354.808, 859.671 327.229, 860.701 314.358 C 861.237 307.662, 861.130 307.140, 858.996 305.998 C 857.632 305.268, 854.366 304.950, 850.843 305.205 C 845.922 305.561, 844.001 306.311, 839.032 309.815 C 835.768 312.117, 832.710 314, 832.237 314 C 830.185 314, 827 307.923, 827 304.008 C 827 298.262, 824.672 293.380, 820.810 291.026 C 816.926 288.657, 817.177 288.686, 814.066 290.265 M 625.416 296.001 C 624.270 296.448, 618.737 301.746, 613.120 307.775 C 606.184 315.220, 601.879 319.031, 599.704 319.652 C 597.497 320.282, 595.524 322.055, 593.364 325.347 C 588.592 332.623, 586.385 334.574, 578.634 338.372 C 570.113 342.546, 561.062 345, 554.182 345 C 550.176 345, 548.500 344.450, 545.941 342.297 C 541.350 338.434, 539.770 333.888, 539.901 324.914 L 540.013 317.268 530.247 316.798 C 524.875 316.539, 519.443 315.772, 518.175 315.093 C 516.906 314.415, 514.970 311.763, 513.871 309.200 C 511.539 303.759, 510.642 303.036, 506.200 303.015 C 501.817 302.995, 498.434 304.860, 490.834 311.489 C 487.350 314.528, 482.637 317.890, 480.360 318.960 L 476.220 320.907 475.517 329.790 C 473.843 350.936, 481.089 371.569, 494.488 383.815 C 500.522 389.330, 511.671 395.146, 520.545 397.408 C 537.350 401.691, 579.734 402.061, 595.818 398.065 C 617.106 392.775, 632.201 381.607, 637.807 367 C 641.632 357.032, 645.199 339.065, 646.621 322.604 L 647.302 314.707 644.551 315.398 C 642.263 315.972, 641.288 315.534, 638.754 312.794 C 637.079 310.982, 634.762 306.848, 633.604 303.607 C 631.293 297.133, 628.698 294.724, 625.416 296.001 M 1134.966 300.579 C 1131.960 303.648, 1127.870 307.003, 1125.878 308.034 L 1122.257 309.910 1123.203 315.205 C 1123.723 318.117, 1126.111 324.661, 1128.510 329.748 C 1143.311 361.133, 1165.266 380.710, 1198.722 392.355 C 1226.079 401.877, 1256.449 403.954, 1273.653 397.479 C 1292.434 390.409, 1317.551 369.920, 1329.697 351.761 C 1338.330 338.853, 1345 320.505, 1345 309.662 C 1345 305.062, 1344.620 303.847, 1342.777 302.557 C 1339.770 300.450, 1339.751 300.455, 1334.537 304.968 C 1332.016 307.150, 1328.051 309.450, 1325.726 310.079 C 1319.736 311.701, 1309.773 310.688, 1304.573 307.929 L 1300.252 305.637 1291.413 310.938 C 1280.750 317.333, 1276.295 319, 1269.868 319 C 1265.773 319, 1264.626 319.438, 1262.743 321.720 C 1252.517 334.118, 1244.359 336.567, 1228.734 331.927 C 1217.659 328.639, 1210.110 324.851, 1203.268 319.150 C 1199.840 316.294, 1196.915 314.033, 1196.768 314.125 C 1195.644 314.831, 1192.107 312.424, 1190.251 309.691 C 1186.374 303.981, 1184.031 302, 1181.157 302 C 1178.343 302, 1170.575 306.349, 1168.181 309.265 C 1166.413 311.418, 1161.749 312.339, 1156.561 311.561 C 1152.626 310.971, 1152.126 310.538, 1149.909 305.807 C 1147.517 300.698, 1142.985 295, 1141.315 295 C 1140.829 295, 1137.972 297.511, 1134.966 300.579 M 98.322 298.869 C 96.024 300.427, 92.701 302.915, 90.938 304.399 C 85.699 308.807, 80.072 311.264, 76.740 310.598 C 75.109 310.272, 71.551 308.373, 68.833 306.377 C 66.115 304.382, 62.815 302.750, 61.500 302.750 C 58.594 302.750, 50.787 308.338, 45.151 314.452 C 40.315 319.699, 40.235 320.402, 42.562 337.216 C 46.087 362.682, 52.439 389.593, 55.817 393.374 C 60.093 398.162, 75.688 402, 90.870 402 C 110.916 402, 124.282 397.380, 128.780 388.894 C 131.563 383.646, 131.410 381.674, 126.508 359.500 C 121.678 337.653, 121.412 335.307, 123.498 333.002 C 127.204 328.907, 134.914 327.452, 160.632 325.993 C 182.760 324.739, 195.307 322.059, 206.573 316.181 L 210.500 314.131 207.394 313.018 C 205.006 312.162, 203.976 310.934, 202.936 307.703 C 202.192 305.391, 201.142 303.195, 200.601 302.823 C 199.153 301.826, 194.875 304.336, 188.467 309.943 C 179.616 317.689, 170.080 318.150, 168.630 310.902 C 167.044 302.969, 162.094 302.105, 152 308 C 148.233 310.200, 144.451 312, 143.596 312 C 142.740 312, 141.122 310.200, 140 308 C 138.483 305.026, 137.349 304, 135.580 304 C 134.271 304, 130.805 305.800, 127.877 308 C 123.161 311.543, 121.923 312, 117.027 311.997 L 111.500 311.995 111.500 305.649 C 111.500 301.740, 110.973 298.670, 110.128 297.652 C 108.058 295.161, 103.026 295.680, 98.322 298.869 M 393 298.979 C 391.075 300.019, 384.818 304.695, 379.096 309.371 C 369.357 317.328, 368.270 317.941, 362.096 318.970 C 349.527 321.063, 340.433 321.724, 334.769 320.955 C 328.052 320.044, 315.945 313.745, 310.560 308.360 C 306.133 303.933, 304.563 304.187, 293.805 311.074 C 289.573 313.783, 284.947 316, 283.525 316 C 281.850 316, 278.700 314.100, 274.575 310.601 C 271.075 307.631, 267.276 304.905, 266.133 304.542 C 263.351 303.659, 255.591 307.168, 253.598 310.210 C 247.393 319.679, 245.633 337.958, 249.975 347.836 C 257.979 366.046, 281.858 384.308, 309.500 393.360 C 341.947 403.985, 384.525 404.187, 411 393.841 C 423.601 388.917, 442.572 375.494, 449.181 366.828 C 454.501 359.852, 462.656 341.118, 466.764 326.437 L 468.740 319.373 465.620 318.121 C 456.396 314.418, 456.162 314.228, 454.306 308.916 C 453.313 306.072, 451.469 303.064, 450.209 302.231 C 447.242 300.269, 445.159 301.202, 435.065 309.011 C 429.598 313.240, 425.918 315.285, 422.250 316.132 C 416.575 317.442, 411.243 316.516, 409.934 313.992 C 406.704 307.770, 405 303.671, 405 302.124 C 405 299.629, 401.843 296.991, 398.921 297.044 C 397.590 297.069, 394.925 297.939, 393 298.979 M 942.765 305.527 C 939.057 308.974, 938.961 309, 929.727 309 L 920.425 309 915.500 314 C 908.798 320.804, 907.842 320.659, 900.682 311.749 C 898.582 309.136, 895.912 306.488, 894.748 305.865 C 892.534 304.680, 890.904 306.079, 884.174 314.938 C 881.696 318.200, 877.714 318.988, 873.934 316.965 C 871.316 315.564, 871.394 316.501, 874.937 329.077 C 883.627 359.923, 889.822 372.748, 901.964 385.025 C 913.111 396.297, 915.594 397.436, 929 397.432 C 943.078 397.427, 948.156 395.657, 956.515 387.837 C 966.658 378.349, 971.210 368.761, 972.984 353.151 C 974.233 342.161, 972.872 332.550, 968.822 323.765 C 966.271 318.230, 965.279 317, 963.366 317 C 961.518 317, 960.408 315.769, 958.058 311.115 C 956.424 307.879, 954.361 304.504, 953.472 303.615 C 950.852 300.994, 946.876 301.704, 942.765 305.527 M 1073.939 303.389 C 1068.912 304.718, 1064.397 307.521, 1058.861 312.751 C 1054.587 316.789, 1053.623 316.534, 1045.903 309.312 C 1043.135 306.724, 1040.914 305.330, 1040.535 305.943 C 1039.241 308.036, 1038.779 327.571, 1039.883 333.500 C 1041.556 342.485, 1046.189 350.929, 1054.081 359.379 C 1063.973 369.972, 1066.199 371.166, 1076.270 371.286 C 1086.368 371.406, 1091.441 369.264, 1100.149 361.201 C 1106.926 354.928, 1111.721 346.924, 1115.547 335.500 C 1117.981 328.233, 1121.286 311, 1120.245 311 C 1120.009 311, 1118.661 311.908, 1117.250 313.018 C 1113.642 315.856, 1104.534 318.323, 1100.476 317.561 C 1097.970 317.091, 1096.208 315.688, 1093.514 312.019 C 1087.568 303.919, 1081.707 301.335, 1073.939 303.389 M 1002.190 319.810 C 1001.155 320.845, 998.898 323.741, 997.175 326.245 C 995.453 328.749, 992.249 332.219, 990.056 333.956 C 987.273 336.160, 985.934 338.077, 985.622 340.307 C 985.376 342.063, 984.668 347.467, 984.049 352.316 C 983.430 357.164, 982.650 362.500, 982.315 364.173 L 981.707 367.214 994.104 366.851 C 1000.922 366.651, 1006.995 366.168, 1007.600 365.778 C 1008.393 365.266, 1008.333 363.176, 1007.386 358.284 C 1006.649 354.475, 1006.057 344.399, 1006.037 335.309 C 1006.016 326.045, 1005.588 318.863, 1005.036 318.523 C 1004.507 318.195, 1003.226 318.774, 1002.190 319.810 M 204.769 377.075 C 193.998 385.166, 187.615 394.535, 184.445 406.908 C 182.988 412.597, 183.192 419.018, 184.829 418.987 C 185.198 418.980, 187.075 416.450, 189 413.366 C 193.106 406.785, 202.704 397.680, 212.162 391.393 L 218.880 386.926 215.941 380.713 C 214.324 377.296, 213.001 373.938, 213.001 373.250 C 213 371.220, 211.857 371.751, 204.769 377.075" stroke="none" fill="#d2ee37" fill-rule="evenodd"/><path d="M 418 135.669 C 413.881 136.501, 399.673 143.469, 393.380 147.742 C 385.388 153.169, 379.282 159.977, 378.456 164.383 C 377.582 169.040, 379.359 176.177, 384.131 187.179 C 389.384 199.291, 389.269 201.826, 383.191 207.904 C 377.385 213.710, 370.569 216.500, 358.544 217.995 C 348.984 219.182, 337.689 218.184, 329.756 215.451 C 324.439 213.619, 315.270 205.947, 314.460 202.652 C 314.169 201.469, 315.777 193.788, 318.032 185.585 C 323.381 166.130, 323.781 162.554, 321.247 156.826 C 318.835 151.372, 313.413 145.761, 307.777 142.886 C 304.098 141.009, 302.366 140.810, 293.049 141.194 C 284.382 141.551, 281.465 142.098, 276.776 144.245 C 266.428 148.983, 258.116 155.670, 253.559 162.925 C 250.054 168.504, 247 177.636, 247 182.538 C 247 187.438, 245.595 188.505, 244.562 184.390 C 242.217 175.046, 232.001 162.441, 222.046 156.606 C 209.484 149.244, 190.336 143.550, 167.500 140.387 C 149.155 137.846, 108.315 137.808, 95.500 140.319 C 75.481 144.243, 63.051 150.013, 53.062 160.017 C 45.713 167.378, 41.963 174.156, 38.803 185.793 C 36.999 192.438, 36.649 197.151, 36.263 220 C 35.751 250.267, 37.462 300.414, 39.436 313 C 40.169 317.675, 40.821 320.927, 40.885 320.228 C 41.232 316.397, 57.329 302.750, 61.500 302.750 C 62.815 302.750, 66.115 304.382, 68.833 306.377 C 71.551 308.373, 75.109 310.272, 76.740 310.598 C 80.096 311.269, 85.915 308.705, 91.222 304.215 C 105.045 292.523, 112.484 293.441, 111.779 306.751 L 111.500 312.003 117.027 312.001 C 121.920 312, 123.164 311.541, 127.877 308 C 130.805 305.800, 134.271 304, 135.580 304 C 137.349 304, 138.483 305.026, 140 308 C 141.122 310.200, 142.740 312, 143.596 312 C 144.451 312, 148.233 310.200, 152 308 C 162.094 302.105, 167.044 302.969, 168.630 310.902 C 170.080 318.150, 179.616 317.689, 188.467 309.943 C 194.875 304.336, 199.153 301.826, 200.601 302.823 C 201.142 303.195, 202.195 305.400, 202.943 307.722 C 204.037 311.122, 204.957 312.161, 207.664 313.054 C 210.831 314.099, 211.302 313.931, 215.763 310.161 C 222.887 304.140, 230.327 296.138, 234.382 290.132 C 240.525 281.038, 245.520 260.932, 246.695 240.578 C 247.296 230.167, 247.381 229.839, 248.515 233.578 C 250.666 240.668, 260.609 260.392, 264.846 265.974 C 267.131 268.984, 270.913 272.982, 273.250 274.858 C 288.940 287.450, 316.810 290.797, 350.887 284.181 C 370.429 280.388, 377.687 280.192, 384 283.291 C 389.915 286.194, 391.613 289.597, 389.578 294.467 C 384.967 305.502, 370.343 315.430, 352.670 319.521 C 346.644 320.916, 346.617 320.937, 351.500 320.418 C 367.205 318.749, 368.015 318.424, 379.114 309.354 C 390.307 300.207, 395.548 297, 399.305 297 C 401.982 297, 405 299.808, 405 302.298 C 405 303.696, 406.782 307.920, 409.934 313.992 C 411.243 316.516, 416.575 317.442, 422.250 316.132 C 425.918 315.285, 429.598 313.240, 435.065 309.011 C 445.159 301.202, 447.242 300.269, 450.209 302.231 C 451.469 303.064, 453.313 306.072, 454.306 308.916 C 455.804 313.202, 456.744 314.359, 459.806 315.682 C 461.838 316.559, 464.512 317.741, 465.748 318.307 C 466.985 318.873, 468.273 319.060, 468.611 318.722 C 469.774 317.559, 471.924 305.469, 473.540 291.003 C 474.431 283.030, 475.272 276.395, 475.408 276.258 C 475.545 276.122, 477.197 279.045, 479.078 282.755 C 482.040 288.592, 483.173 289.836, 487.500 292 L 492.500 294.500 527 294.500 C 571.016 294.499, 585.016 292.913, 591.320 287.212 C 592.361 286.270, 594.161 283.700, 595.319 281.500 L 597.425 277.500 598.227 284.500 C 599.133 292.403, 597.584 311.742, 595.486 318.711 C 594.232 322.880, 594.254 323.080, 595.820 321.669 C 596.744 320.837, 598.689 319.859, 600.143 319.496 C 601.728 319.101, 607.010 314.322, 613.349 307.547 C 619.159 301.337, 624.803 296.023, 625.891 295.739 C 629.090 294.902, 631.791 297.661, 633.698 303.711 C 635.972 310.924, 640.917 316.464, 644.197 315.472 C 645.464 315.089, 646.873 314.430, 647.329 314.008 C 647.786 313.586, 648.412 302.049, 648.722 288.371 C 649.854 238.394, 644.440 187.229, 634.839 157.181 C 633.202 152.055, 631.018 147.018, 629.986 145.986 C 627.325 143.325, 618.681 140.996, 611.568 141.024 C 599.449 141.071, 593.162 144.017, 591.665 150.347 C 590.871 153.704, 590.513 154, 587.246 154 C 585.290 154, 573.748 152.368, 561.595 150.374 C 543.060 147.332, 536.841 146.728, 523 146.624 C 503.668 146.479, 500.295 147.483, 492.193 155.802 C 485.023 163.163, 473.787 183.216, 472.498 190.950 L 471.756 195.401 468.925 187.634 C 460.187 163.667, 446.454 143.787, 434.708 138.101 C 430.126 135.883, 422.464 134.768, 418 135.669 M 1029.910 141.216 C 1013.826 142.556, 999.615 148.682, 994.962 156.280 C 993.878 158.051, 991.857 163.200, 990.471 167.723 C 984.114 188.476, 982.729 189.169, 972.363 176.796 C 964.765 167.727, 952.907 158.867, 945.775 156.929 C 931.974 153.180, 910.045 160.969, 896.389 174.470 C 890.508 180.283, 888.402 183.317, 884.219 192 C 881.436 197.775, 877.995 206.050, 876.571 210.389 C 870.293 229.525, 866.225 261.940, 867.398 283.487 C 868.142 297.151, 871.041 318.552, 871.949 317.083 C 872.327 316.470, 873.103 316.453, 874.026 317.037 C 877.225 319.060, 881.754 318.123, 884.174 314.938 C 890.904 306.079, 892.534 304.680, 894.748 305.865 C 895.912 306.488, 898.582 309.136, 900.682 311.749 C 907.842 320.659, 908.798 320.804, 915.500 314 L 920.425 309 929.710 309 C 938.916 309, 939.027 308.971, 942.868 305.500 C 947.100 301.677, 950.865 301.008, 953.472 303.615 C 954.361 304.504, 956.424 307.879, 958.058 311.115 C 960.524 315.999, 961.466 317, 963.600 317 L 966.172 317 962.430 310.250 C 960.373 306.537, 956.543 299.900, 953.920 295.500 C 951.298 291.100, 946.305 281.680, 942.826 274.567 L 936.500 261.635 936.500 252.567 C 936.500 243.359, 937.959 237.614, 940.549 236.620 C 942.764 235.770, 948.744 243.481, 963.492 266.203 C 979.206 290.412, 984.725 297.937, 989.297 301.387 C 998.210 308.112, 1007.493 305.840, 1013.588 295.440 C 1016.385 290.668, 1023.349 266.730, 1028.455 244.335 C 1034.046 219.816, 1035.763 216.649, 1041.450 220.375 C 1045.256 222.869, 1050 233.448, 1050 239.440 C 1050 248.870, 1044.448 286.315, 1040.452 303.834 C 1040.159 305.117, 1040.317 305.922, 1040.801 305.623 C 1041.286 305.323, 1043.217 306.665, 1045.092 308.605 C 1046.966 310.545, 1049.966 313.041, 1051.757 314.152 L 1055.015 316.172 1060.027 311.666 C 1073.376 299.663, 1084.530 299.781, 1093.514 312.019 C 1097.836 317.906, 1101.281 318.948, 1108.974 316.692 C 1116.995 314.341, 1120.953 311.191, 1121.153 307 L 1121.320 303.500 1121.723 306.743 L 1122.126 309.986 1125.313 308.388 C 1127.066 307.509, 1131.283 304.067, 1134.686 300.738 C 1140.726 294.827, 1140.928 294.723, 1143.288 296.269 C 1144.618 297.141, 1147.234 300.800, 1149.101 304.403 C 1152.302 310.575, 1152.736 310.988, 1156.656 311.576 C 1161.757 312.341, 1166.424 311.405, 1168.181 309.265 C 1170.575 306.349, 1178.343 302, 1181.157 302 C 1184.031 302, 1186.374 303.981, 1190.251 309.691 C 1192.337 312.763, 1194.277 314.100, 1196.343 313.890 C 1196.807 313.843, 1198.599 315.086, 1200.325 316.652 C 1202.051 318.219, 1201.176 317.011, 1198.381 313.968 C 1192.207 307.247, 1190.610 302.895, 1190.563 292.660 C 1190.516 282.608, 1191.578 281.568, 1201 282.443 C 1227.508 284.905, 1284.546 285.716, 1308.500 283.973 C 1331.204 282.320, 1340.288 279.685, 1341.623 274.364 C 1342.752 269.868, 1341.025 249.041, 1338.443 236 C 1336.444 225.908, 1334.923 221.342, 1330.545 212.297 C 1323.322 197.376, 1319.486 191.571, 1310.827 182.454 C 1296.837 167.727, 1279.155 154.857, 1266.128 149.919 C 1249.125 143.475, 1227.928 140.718, 1211.842 142.858 C 1181.382 146.911, 1149.948 170.180, 1135.618 199.282 C 1129.551 211.604, 1126.077 222.565, 1124.707 233.710 L 1123.575 242.920 1121.847 232.657 C 1119.878 220.962, 1115.465 206.467, 1110.030 193.839 C 1099.578 169.553, 1079.751 149.119, 1060.742 143.041 C 1055.302 141.302, 1039.853 140.387, 1029.910 141.216 M 777.500 144.142 C 753.693 145.649, 722.929 154.509, 697.720 167.120 C 682.178 174.895, 671.453 184.252, 665.964 194.827 C 663.938 198.730, 663.774 200.103, 664.293 208.827 C 665.308 225.909, 670.267 236.395, 679.500 240.986 C 683.810 243.130, 685.825 243.466, 694.102 243.426 C 706.491 243.366, 711.074 241.215, 724 229.390 C 735.869 218.533, 746.247 210.659, 752.041 208.115 C 758.248 205.389, 768.024 203.538, 771.550 204.422 C 775.645 205.447, 792.946 223.133, 795.943 229.357 C 797.413 232.408, 798.467 236.800, 798.780 241.167 L 799.277 248.118 793.527 253.688 L 787.777 259.257 782.412 258.703 C 778.891 258.340, 771.888 255.881, 762.047 251.553 C 740.801 242.210, 736.891 241.320, 723.096 242.683 C 713.817 243.600, 710.777 244.359, 704.557 247.312 C 687.985 255.183, 674.680 266.184, 665.950 279.236 C 658.635 290.172, 655.878 295.471, 653.099 303.937 C 649.532 314.802, 650.462 315.513, 658.406 308 C 661.314 305.250, 664.550 302.998, 665.597 302.996 C 666.682 302.993, 670.577 306.281, 674.658 310.645 L 681.817 318.299 687.455 317.717 C 694.165 317.024, 699.202 314.271, 707.808 306.593 C 712.764 302.170, 714.774 301, 717.415 301 C 721.697 301, 722.607 302.253, 723.273 309.063 C 723.572 312.123, 724.546 316.372, 725.438 318.506 L 727.060 322.387 729.145 318.171 C 731.365 313.685, 736.378 308.998, 741.612 306.514 C 749.903 302.580, 761.589 306.304, 772.334 316.304 C 777.127 320.764, 778.610 321.607, 781.171 321.326 C 786.441 320.750, 789.241 318.748, 795.472 311.106 C 814.201 288.133, 814.867 287.585, 820.285 290.713 C 824.331 293.048, 826.996 298.240, 826.998 303.790 C 827 307.916, 830.121 314, 832.237 314 C 832.710 314, 835.768 312.117, 839.032 309.815 C 844.001 306.311, 845.922 305.561, 850.843 305.205 C 857.491 304.724, 860.659 305.950, 861.294 309.248 C 861.532 310.487, 861.787 296.650, 861.860 278.500 C 861.992 245.559, 861.986 245.474, 859.019 231.072 C 853.770 205.598, 847.545 190.015, 835.623 172.511 C 818.697 147.660, 807.588 142.238, 777.500 144.142 M 547.613 190.068 C 540.128 191.912, 536.339 194.849, 533.650 200.894 C 528.737 211.938, 527.526 227.191, 531.020 234.039 C 535.139 242.114, 545.339 246.210, 558.160 244.939 C 567.618 244.001, 572.395 241.818, 576.060 236.759 C 580.727 230.315, 582.286 224.063, 581.822 213.646 C 581.474 205.854, 580.976 203.697, 578.457 199.078 C 573.953 190.820, 571.620 189.537, 560.679 189.306 C 555.631 189.199, 549.751 189.542, 547.613 190.068 M 135.500 199.399 C 129.061 201.435, 125.659 203.562, 121.333 208.254 C 116.109 213.922, 113.028 222.221, 112.296 232.600 C 111.791 239.746, 112.001 241.371, 113.948 245.393 C 119.534 256.933, 132.834 265.392, 145.500 265.461 C 151.170 265.493, 153.569 264.975, 158.125 262.738 C 164.439 259.637, 171.727 252.416, 174.982 246.036 C 178.896 238.364, 180.986 224.181, 179.384 216.169 C 178.525 211.875, 172.654 205.362, 167.138 202.584 C 158.313 198.140, 144.027 196.702, 135.500 199.399 M 1227.500 205.343 C 1214.686 209.574, 1202 220.137, 1202 226.577 C 1202 229.499, 1207.931 234.448, 1213.847 236.464 C 1220.038 238.573, 1237.349 239.387, 1250.684 238.195 C 1259.826 237.379, 1262.798 236.690, 1266.958 234.426 C 1275.456 229.801, 1274.821 225.858, 1264.222 217.441 C 1251.486 207.326, 1236.474 202.380, 1227.500 205.343 M 271.435 291.819 C 266.054 294.358, 260.933 298.953, 256.404 305.308 C 254.369 308.163, 253.574 309.730, 254.638 308.788 C 257.622 306.149, 263.919 303.840, 266.179 304.557 C 267.296 304.911, 271.075 307.631, 274.575 310.601 C 278.700 314.100, 281.850 316, 283.525 316 C 284.947 316, 289.573 313.783, 293.805 311.074 C 304.563 304.187, 306.133 303.933, 310.560 308.360 C 312.526 310.326, 317.422 313.749, 321.440 315.967 C 328.859 320.062, 332.980 321.533, 327.500 318.129 C 323.383 315.573, 320.053 311.791, 317.042 306.254 C 315.644 303.683, 312.672 300.190, 310.437 298.492 C 301.296 291.545, 279.807 287.868, 271.435 291.819 M 1300.121 302.119 C 1289.462 303.149, 1279.083 304.439, 1277.056 304.985 C 1272.886 306.108, 1270.427 308.487, 1266.666 315.036 L 1264.061 319.572 1270.780 318.907 C 1279.067 318.086, 1279.345 317.979, 1290.884 311.177 L 1300.268 305.646 1304.581 307.934 C 1309.773 310.688, 1319.740 311.699, 1325.726 310.079 C 1329.925 308.943, 1339.431 301.764, 1338.272 300.606 C 1337.187 299.520, 1319.914 300.205, 1300.121 302.119 M 494.007 302.173 C 483.502 303.672, 479.281 307.298, 477.195 316.611 L 476.275 320.722 479.241 319.611 C 480.872 319, 484.747 316.361, 487.853 313.747 C 497.229 305.856, 502.046 302.999, 505.946 303.015 C 510.658 303.036, 511.516 303.705, 513.871 309.200 C 514.970 311.763, 516.906 314.415, 518.175 315.093 C 519.443 315.772, 524.872 316.539, 530.240 316.797 C 541.581 317.344, 542.312 316.616, 536.250 310.821 C 530.993 305.796, 529.576 305.235, 516.451 302.992 C 503.772 300.824, 503.526 300.815, 494.007 302.173" stroke="none" fill="#41e022" fill-rule="evenodd"/></svg>